G04*
G04 #@! TF.GenerationSoftware,Altium Limited,Altium Designer,22.5.1 (42)*
G04*
G04 Layer_Physical_Order=2*
G04 Layer_Color=32768*
%FSLAX44Y44*%
%MOMM*%
G71*
G04*
G04 #@! TF.SameCoordinates,DFEE975E-FB4D-4F5B-BE5F-A39223BB333C*
G04*
G04*
G04 #@! TF.FilePolarity,Negative*
G04*
G01*
G75*
%ADD39C,1.0160*%
%ADD40C,1.9160*%
G04:AMPARAMS|DCode=41|XSize=2.424mm|YSize=2.424mm|CornerRadius=0mm|HoleSize=0mm|Usage=FLASHONLY|Rotation=0.000|XOffset=0mm|YOffset=0mm|HoleType=Round|Shape=Relief|Width=0.254mm|Gap=0.254mm|Entries=4|*
%AMTHD41*
7,0,0,2.4240,1.9160,0.2540,45*
%
%ADD41THD41*%
G04:AMPARAMS|DCode=42|XSize=2.174mm|YSize=2.174mm|CornerRadius=0mm|HoleSize=0mm|Usage=FLASHONLY|Rotation=0.000|XOffset=0mm|YOffset=0mm|HoleType=Round|Shape=Relief|Width=0.254mm|Gap=0.254mm|Entries=4|*
%AMTHD42*
7,0,0,2.1740,1.6660,0.2540,45*
%
%ADD42THD42*%
%AMTHOVALD43*
21,1,0.7500,2.0740,0,0,270.0*
1,1,2.0740,0.0000,0.3750*
1,1,2.0740,0.0000,-0.3750*
21,0,0.7500,1.5660,0,0,270.0*
1,0,1.5660,0.0000,0.3750*
1,0,1.5660,0.0000,-0.3750*
4,0,4,-0.0898,0.2852,-0.8231,1.0185,-0.6435,1.1981,0.0898,0.4648,-0.0898,0.2852,0.0*
4,0,4,-0.0898,-0.4648,0.6435,-1.1981,0.8231,-1.0185,0.0898,-0.2852,-0.0898,-0.4648,0.0*
4,0,4,-0.0898,0.4648,0.6435,1.1981,0.8231,1.0185,0.0898,0.2852,-0.0898,0.4648,0.0*
4,0,4,-0.0898,-0.2852,-0.8231,-1.0185,-0.6435,-1.1981,0.0898,-0.4648,-0.0898,-0.2852,0.0*
%
%ADD43THOVALD43*%

%ADD44C,1.2160*%
D39*
X0Y25400D02*
G03*
X25400Y0I25400J0D01*
G01*
X177800D02*
G03*
X203200Y25400I0J25400D01*
G01*
Y345440D02*
G03*
X177800Y370840I-25400J0D01*
G01*
X25400D02*
G03*
X0Y345440I0J-25400D01*
G01*
X25400Y0D02*
X177800D01*
X203200Y25400D02*
Y345440D01*
X25400Y370840D02*
X177800D01*
X0Y25400D02*
Y345440D01*
D40*
X127000Y35560D02*
D03*
X152400D02*
D03*
X76200D02*
D03*
X50800D02*
D03*
X127000Y297180D02*
D03*
X76200D02*
D03*
X101600D02*
D03*
X190500Y190500D02*
D03*
Y215900D02*
D03*
Y317500D02*
D03*
Y266700D02*
D03*
Y139700D02*
D03*
Y165100D02*
D03*
Y114300D02*
D03*
Y88900D02*
D03*
Y63500D02*
D03*
X12700Y215900D02*
D03*
Y317500D02*
D03*
Y266700D02*
D03*
Y139700D02*
D03*
Y165100D02*
D03*
Y114300D02*
D03*
Y88900D02*
D03*
Y63500D02*
D03*
D41*
X101600Y35560D02*
D03*
X190500Y241300D02*
D03*
Y292100D02*
D03*
Y38100D02*
D03*
X12700Y190500D02*
D03*
Y241300D02*
D03*
Y292100D02*
D03*
Y38100D02*
D03*
D42*
X77350Y326560D02*
D03*
X125850D02*
D03*
D43*
X137600Y353060D02*
D03*
X65600D02*
D03*
D44*
X109220Y337820D02*
D03*
X142240Y256540D02*
D03*
X157480Y274320D02*
D03*
X143510Y172600D02*
D03*
X45720Y302260D02*
D03*
X157480Y350520D02*
D03*
X93980Y91440D02*
D03*
X109220D02*
D03*
X132080Y99060D02*
D03*
X111760D02*
D03*
X91440Y124460D02*
D03*
X52070Y171450D02*
D03*
M02*
