G04*
G04 #@! TF.GenerationSoftware,Altium Limited,Altium Designer,22.5.1 (42)*
G04*
G04 Layer_Color=16711935*
%FSLAX44Y44*%
%MOMM*%
G71*
G04*
G04 #@! TF.SameCoordinates,DFEE975E-FB4D-4F5B-BE5F-A39223BB333C*
G04*
G04*
G04 #@! TF.FilePolarity,Negative*
G04*
G01*
G75*
%ADD14R,1.6032X1.4032*%
%ADD19C,1.7032*%
%ADD20R,1.7032X1.7032*%
%ADD21C,1.3032*%
%ADD22O,1.3032X2.0532*%
%ADD23R,1.7032X1.7032*%
%ADD52R,0.8532X1.5032*%
%ADD53R,0.6532X1.5532*%
%ADD54R,0.6032X1.5532*%
%ADD55R,1.0032X1.3032*%
D14*
X91440Y136320D02*
D03*
Y158320D02*
D03*
X167640Y301420D02*
D03*
Y323420D02*
D03*
X147320D02*
D03*
Y301420D02*
D03*
X104140Y277700D02*
D03*
Y255700D02*
D03*
X124460D02*
D03*
Y277700D02*
D03*
X60960Y237060D02*
D03*
Y215060D02*
D03*
X40640D02*
D03*
Y237060D02*
D03*
X55880Y323420D02*
D03*
Y301420D02*
D03*
X35560D02*
D03*
Y323420D02*
D03*
X50800Y136320D02*
D03*
Y158320D02*
D03*
X71120D02*
D03*
Y136320D02*
D03*
D19*
X127000Y35560D02*
D03*
X101600D02*
D03*
X76200D02*
D03*
X50800D02*
D03*
X127000Y297180D02*
D03*
X101600D02*
D03*
X190500Y190500D02*
D03*
Y215900D02*
D03*
Y241300D02*
D03*
Y266700D02*
D03*
Y139700D02*
D03*
Y165100D02*
D03*
Y292100D02*
D03*
Y114300D02*
D03*
Y88900D02*
D03*
Y63500D02*
D03*
Y38100D02*
D03*
X12700Y190500D02*
D03*
Y215900D02*
D03*
Y241300D02*
D03*
Y266700D02*
D03*
Y139700D02*
D03*
Y165100D02*
D03*
Y292100D02*
D03*
Y114300D02*
D03*
Y88900D02*
D03*
Y63500D02*
D03*
Y38100D02*
D03*
D20*
X152400Y35560D02*
D03*
X76200Y297180D02*
D03*
D21*
X77350Y326560D02*
D03*
X125850D02*
D03*
D22*
X137600Y353060D02*
D03*
X65600D02*
D03*
D23*
X190500Y317500D02*
D03*
X12700D02*
D03*
D52*
X146100Y276860D02*
D03*
X165100D02*
D03*
X155600Y257860D02*
D03*
D53*
X62380Y274660D02*
D03*
X49380D02*
D03*
X55880D02*
D03*
D54*
X62380Y253660D02*
D03*
X49380D02*
D03*
D55*
X101600Y334120D02*
D03*
X108100Y316120D02*
D03*
X95100D02*
D03*
M02*
