G04*
G04 #@! TF.GenerationSoftware,Altium Limited,Altium Designer,22.5.1 (42)*
G04*
G04 Layer_Physical_Order=4*
G04 Layer_Color=16711680*
%FSLAX44Y44*%
%MOMM*%
G71*
G04*
G04 #@! TF.SameCoordinates,DFEE975E-FB4D-4F5B-BE5F-A39223BB333C*
G04*
G04*
G04 #@! TF.FilePolarity,Positive*
G04*
G01*
G75*
%ADD25R,1.4000X1.2000*%
%ADD30C,0.5080*%
%ADD31C,0.2540*%
%ADD33C,1.5000*%
%ADD34R,1.5000X1.5000*%
%ADD35C,1.1000*%
%ADD36O,1.1000X1.8500*%
%ADD37R,1.5000X1.5000*%
%ADD38C,0.4500*%
%ADD47R,0.6500X1.3000*%
%ADD48R,0.4500X1.3500*%
%ADD49R,0.4000X1.3500*%
%ADD50R,0.8000X1.1000*%
%ADD51C,0.1270*%
G36*
X184614Y367903D02*
X188866Y366142D01*
X192692Y363586D01*
X195946Y360332D01*
X198502Y356506D01*
X200263Y352254D01*
X201161Y347741D01*
Y345440D01*
Y25400D01*
Y23099D01*
X200263Y18586D01*
X198502Y14334D01*
X195946Y10508D01*
X192692Y7254D01*
X188866Y4698D01*
X184614Y2937D01*
X180101Y2039D01*
X23099D01*
X18586Y2937D01*
X14334Y4698D01*
X10508Y7254D01*
X7254Y10508D01*
X4698Y14334D01*
X2937Y18586D01*
X2039Y23099D01*
Y25400D01*
Y345440D01*
Y347741D01*
X2937Y352254D01*
X4698Y356506D01*
X7254Y360332D01*
X10508Y363586D01*
X14334Y366142D01*
X18586Y367903D01*
X23099Y368801D01*
X180101D01*
X184614Y367903D01*
D02*
G37*
%LPC*%
G36*
X140140Y364460D02*
Y355600D01*
X145709D01*
Y356810D01*
X145433Y358909D01*
X144623Y360865D01*
X143334Y362544D01*
X141655Y363833D01*
X140140Y364460D01*
D02*
G37*
G36*
X68140Y364460D02*
Y355600D01*
X73709D01*
Y356810D01*
X73433Y358909D01*
X72623Y360865D01*
X71334Y362544D01*
X69655Y363833D01*
X68140Y364460D01*
D02*
G37*
G36*
X63060Y364460D02*
X61545Y363833D01*
X59866Y362544D01*
X58577Y360865D01*
X57767Y358909D01*
X57491Y356810D01*
Y355600D01*
X63060D01*
Y364460D01*
D02*
G37*
G36*
X135060Y364460D02*
X133545Y363833D01*
X131866Y362544D01*
X130577Y360865D01*
X129767Y358909D01*
X129491Y356810D01*
Y355600D01*
X135060D01*
Y364460D01*
D02*
G37*
G36*
X158325Y354770D02*
X156635D01*
X155073Y354123D01*
X153877Y352927D01*
X153230Y351365D01*
Y349675D01*
X153877Y348113D01*
X155073Y346917D01*
X156635Y346270D01*
X158325D01*
X159887Y346917D01*
X161083Y348113D01*
X161730Y349675D01*
Y351365D01*
X161083Y352927D01*
X159887Y354123D01*
X158325Y354770D01*
D02*
G37*
G36*
X63060Y350520D02*
X57491D01*
Y349310D01*
X57767Y347211D01*
X58577Y345255D01*
X59866Y343576D01*
X61545Y342287D01*
X63060Y341660D01*
Y350520D01*
D02*
G37*
G36*
X145709D02*
X140140D01*
Y341660D01*
X141655Y342287D01*
X143334Y343576D01*
X144623Y345255D01*
X145433Y347211D01*
X145709Y349310D01*
Y350520D01*
D02*
G37*
G36*
X135060D02*
X129491D01*
Y349310D01*
X129767Y347211D01*
X130577Y345255D01*
X131866Y343576D01*
X133545Y342287D01*
X135060Y341660D01*
Y350520D01*
D02*
G37*
G36*
X73709D02*
X68140D01*
Y341660D01*
X69655Y342287D01*
X71334Y343576D01*
X72623Y345255D01*
X73433Y347211D01*
X73709Y349310D01*
Y350520D01*
D02*
G37*
G36*
X109220Y342449D02*
X107449Y342097D01*
X106868Y341709D01*
X103060D01*
X102613Y341620D01*
X95600D01*
Y326620D01*
X107600D01*
Y332451D01*
X108480D01*
X108480Y332451D01*
X110251Y332803D01*
X111753Y333807D01*
X112493Y334547D01*
X113497Y336049D01*
X113849Y337820D01*
X113497Y339591D01*
X112493Y341093D01*
X110991Y342097D01*
X109220Y342449D01*
D02*
G37*
G36*
X128390Y334203D02*
Y329100D01*
X133493D01*
X133342Y329663D01*
X132284Y331497D01*
X130787Y332994D01*
X128953Y334052D01*
X128390Y334203D01*
D02*
G37*
G36*
X79890D02*
Y329100D01*
X84993D01*
X84842Y329663D01*
X83784Y331497D01*
X82287Y332994D01*
X80453Y334052D01*
X79890Y334203D01*
D02*
G37*
G36*
X123310Y334203D02*
X122747Y334052D01*
X120913Y332994D01*
X119416Y331497D01*
X118358Y329663D01*
X118207Y329100D01*
X123310D01*
Y334203D01*
D02*
G37*
G36*
X74810D02*
X74247Y334052D01*
X72413Y332994D01*
X70916Y331497D01*
X69858Y329663D01*
X69707Y329100D01*
X74810D01*
Y334203D01*
D02*
G37*
G36*
X156860Y331960D02*
X149860D01*
Y325960D01*
X156860D01*
Y331960D01*
D02*
G37*
G36*
X65420D02*
X58420D01*
Y325960D01*
X65420D01*
Y331960D01*
D02*
G37*
G36*
X45100D02*
X38100D01*
Y325960D01*
X45100D01*
Y331960D01*
D02*
G37*
G36*
X177180D02*
X170180D01*
Y325960D01*
X177180D01*
Y331960D01*
D02*
G37*
G36*
X144780D02*
X137780D01*
Y325960D01*
X144780D01*
Y331960D01*
D02*
G37*
G36*
X33020D02*
X26020D01*
Y325960D01*
X33020D01*
Y331960D01*
D02*
G37*
G36*
X53340D02*
X46340D01*
Y325960D01*
X53340D01*
Y331960D01*
D02*
G37*
G36*
X165100D02*
X158100D01*
Y325960D01*
X165100D01*
Y331960D01*
D02*
G37*
G36*
X123310Y324020D02*
X118207D01*
X118358Y323457D01*
X119416Y321623D01*
X120913Y320126D01*
X122747Y319068D01*
X123310Y318917D01*
Y324020D01*
D02*
G37*
G36*
X74810D02*
X69707D01*
X69858Y323457D01*
X70916Y321623D01*
X72413Y320126D01*
X74247Y319068D01*
X74810Y318917D01*
Y324020D01*
D02*
G37*
G36*
X133493D02*
X128390D01*
Y318917D01*
X128953Y319068D01*
X130787Y320126D01*
X132284Y321623D01*
X133342Y323457D01*
X133493Y324020D01*
D02*
G37*
G36*
X84993D02*
X79890D01*
Y318917D01*
X80453Y319068D01*
X82287Y320126D01*
X83784Y321623D01*
X84842Y323457D01*
X84993Y324020D01*
D02*
G37*
G36*
X177180Y320880D02*
X170180D01*
Y314880D01*
X177180D01*
Y320880D01*
D02*
G37*
G36*
X165100D02*
X158100D01*
Y314880D01*
X165100D01*
Y320880D01*
D02*
G37*
G36*
X156860D02*
X149860D01*
Y314880D01*
X156860D01*
Y320880D01*
D02*
G37*
G36*
X144780D02*
X137780D01*
Y314880D01*
X144780D01*
Y320880D01*
D02*
G37*
G36*
X65420D02*
X58420D01*
Y314880D01*
X65420D01*
Y320880D01*
D02*
G37*
G36*
X53340D02*
X46340D01*
Y314880D01*
X53340D01*
Y320880D01*
D02*
G37*
G36*
X45100D02*
X38100D01*
Y314880D01*
X45100D01*
Y320880D01*
D02*
G37*
G36*
X33020D02*
X26020D01*
Y314880D01*
X33020D01*
Y320880D01*
D02*
G37*
G36*
X200000Y327000D02*
X181000D01*
Y308000D01*
X200000D01*
Y327000D01*
D02*
G37*
G36*
X22200D02*
X3200D01*
Y308000D01*
X22200D01*
Y327000D01*
D02*
G37*
G36*
X101100Y323620D02*
X89100D01*
Y316562D01*
X88907Y316433D01*
X88907Y316433D01*
X79154Y306680D01*
X66700D01*
Y297473D01*
X66657Y297691D01*
X65653Y299193D01*
X65653Y299193D01*
X64880Y299966D01*
Y309420D01*
X46880D01*
Y306889D01*
X44560D01*
Y309420D01*
X26560D01*
Y293420D01*
X44560D01*
Y297631D01*
X44751D01*
Y276200D01*
X45103Y274429D01*
X45130Y274389D01*
Y270436D01*
X44321Y270977D01*
X42550Y271329D01*
X42550Y271329D01*
X20997D01*
X20302Y272533D01*
X18533Y274302D01*
X16367Y275553D01*
X13951Y276200D01*
X11449D01*
X9033Y275553D01*
X6867Y274302D01*
X5098Y272533D01*
X3847Y270367D01*
X3200Y267951D01*
Y265449D01*
X3847Y263033D01*
X5098Y260867D01*
X6867Y259098D01*
X9033Y257847D01*
X11449Y257200D01*
X13951D01*
X16367Y257847D01*
X18533Y259098D01*
X20302Y260867D01*
X20997Y262071D01*
X40633D01*
X44751Y257953D01*
Y253660D01*
Y245060D01*
X31640D01*
Y229060D01*
X49640D01*
Y234131D01*
X51960D01*
Y229060D01*
X69960D01*
Y238514D01*
X79473Y248027D01*
X79473Y248027D01*
X80477Y249529D01*
X80829Y251300D01*
X80829Y251300D01*
Y251911D01*
X95140D01*
Y247700D01*
X113140D01*
Y251911D01*
X115460D01*
Y247700D01*
X133460D01*
Y251911D01*
X150350D01*
Y249360D01*
X160850D01*
Y253231D01*
X181660D01*
X181660Y253231D01*
X183431Y253583D01*
X184933Y254587D01*
X187906Y257560D01*
X189249Y257200D01*
X191751D01*
X194167Y257847D01*
X196333Y259098D01*
X198102Y260867D01*
X199353Y263033D01*
X200000Y265449D01*
Y267951D01*
X199353Y270367D01*
X198102Y272533D01*
X196333Y274302D01*
X194167Y275553D01*
X191751Y276200D01*
X189249D01*
X186833Y275553D01*
X184667Y274302D01*
X182898Y272533D01*
X181647Y270367D01*
X181000Y267951D01*
Y265449D01*
X181360Y264106D01*
X179743Y262489D01*
X160850D01*
Y266360D01*
X150350D01*
Y261169D01*
X133460D01*
Y263700D01*
X115460D01*
Y261169D01*
X113140D01*
Y263700D01*
X95140D01*
Y261169D01*
X80829D01*
Y287680D01*
X85700D01*
Y300134D01*
X94186Y308620D01*
X101100D01*
Y323620D01*
D02*
G37*
G36*
X193040Y301814D02*
Y294640D01*
X200214D01*
X199856Y295975D01*
X198534Y298265D01*
X196665Y300134D01*
X194375Y301456D01*
X193040Y301814D01*
D02*
G37*
G36*
X15240D02*
Y294640D01*
X22414D01*
X22056Y295975D01*
X20734Y298265D01*
X18865Y300134D01*
X16575Y301456D01*
X15240Y301814D01*
D02*
G37*
G36*
X10160D02*
X8825Y301456D01*
X6535Y300134D01*
X4666Y298265D01*
X3344Y295975D01*
X2986Y294640D01*
X10160D01*
Y301814D01*
D02*
G37*
G36*
X187960D02*
X186625Y301456D01*
X184335Y300134D01*
X182466Y298265D01*
X181144Y295975D01*
X180786Y294640D01*
X187960D01*
Y301814D01*
D02*
G37*
G36*
X102851Y306680D02*
X100349D01*
X97933Y306033D01*
X95767Y304782D01*
X93998Y303013D01*
X92747Y300847D01*
X92100Y298431D01*
Y295929D01*
X92747Y293513D01*
X93998Y291347D01*
X95767Y289578D01*
X97933Y288327D01*
X100349Y287680D01*
X102851D01*
X105267Y288327D01*
X107433Y289578D01*
X109202Y291347D01*
X110453Y293513D01*
X111100Y295929D01*
Y298431D01*
X110453Y300847D01*
X109202Y303013D01*
X107433Y304782D01*
X105267Y306033D01*
X102851Y306680D01*
D02*
G37*
G36*
X187960Y289560D02*
X180786D01*
X181144Y288225D01*
X182466Y285935D01*
X184335Y284066D01*
X186625Y282744D01*
X187960Y282386D01*
Y289560D01*
D02*
G37*
G36*
X10160D02*
X2986D01*
X3344Y288225D01*
X4666Y285935D01*
X6535Y284066D01*
X8825Y282744D01*
X10160Y282386D01*
Y289560D01*
D02*
G37*
G36*
X22414D02*
X15240D01*
Y282386D01*
X16575Y282744D01*
X18865Y284066D01*
X20734Y285935D01*
X22056Y288225D01*
X22414Y289560D01*
D02*
G37*
G36*
X200214D02*
X193040D01*
Y282386D01*
X194375Y282744D01*
X196665Y284066D01*
X198534Y285935D01*
X199856Y288225D01*
X200214Y289560D01*
D02*
G37*
G36*
X134000Y286240D02*
X127000D01*
Y280240D01*
X134000D01*
Y286240D01*
D02*
G37*
G36*
X113680D02*
X106680D01*
Y280240D01*
X113680D01*
Y286240D01*
D02*
G37*
G36*
X121920D02*
X114920D01*
Y280240D01*
X121920D01*
Y286240D01*
D02*
G37*
G36*
X101600D02*
X94600D01*
Y280240D01*
X101600D01*
Y286240D01*
D02*
G37*
G36*
X151890Y285900D02*
X148640D01*
Y279400D01*
X151890D01*
Y285900D01*
D02*
G37*
G36*
X143560D02*
X140310D01*
Y279400D01*
X143560D01*
Y285900D01*
D02*
G37*
G36*
X134000Y275160D02*
X127000D01*
Y269160D01*
X134000D01*
Y275160D01*
D02*
G37*
G36*
X121920D02*
X114920D01*
Y269160D01*
X121920D01*
Y275160D01*
D02*
G37*
G36*
X113680D02*
X106680D01*
Y269160D01*
X113680D01*
Y275160D01*
D02*
G37*
G36*
X101600D02*
X94600D01*
Y269160D01*
X101600D01*
Y275160D01*
D02*
G37*
G36*
X114100Y323620D02*
X102100D01*
Y308620D01*
X107554D01*
X117551Y298622D01*
X117500Y298431D01*
Y295929D01*
X118147Y293513D01*
X119398Y291347D01*
X121167Y289578D01*
X123333Y288327D01*
X125749Y287680D01*
X128251D01*
X130667Y288327D01*
X132833Y289578D01*
X134602Y291347D01*
X135853Y293513D01*
X136103Y294449D01*
X138320D01*
Y293420D01*
X156320D01*
Y296791D01*
X158640D01*
Y293420D01*
X161181D01*
Y285360D01*
X159850D01*
Y278949D01*
X157480D01*
X155709Y278597D01*
X154207Y277593D01*
X153203Y276091D01*
X152851Y274320D01*
X153203Y272549D01*
X154207Y271047D01*
X155709Y270043D01*
X157480Y269691D01*
X159850D01*
Y268360D01*
X170350D01*
Y277123D01*
X170439Y277570D01*
X170439Y277570D01*
Y293420D01*
X176640D01*
Y309420D01*
X158640D01*
Y306049D01*
X156320D01*
Y309420D01*
X138320D01*
Y303707D01*
X133908D01*
X132833Y304782D01*
X130667Y306033D01*
X128251Y306680D01*
X125749D01*
X123333Y306033D01*
X123270Y305996D01*
X114100Y315166D01*
Y323620D01*
D02*
G37*
G36*
X151890Y274320D02*
X148640D01*
Y267820D01*
X151890D01*
Y274320D01*
D02*
G37*
G36*
X143560D02*
X140310D01*
Y267820D01*
X143560D01*
Y274320D01*
D02*
G37*
G36*
X193040Y251014D02*
Y243840D01*
X200214D01*
X199856Y245175D01*
X198534Y247465D01*
X196665Y249334D01*
X194375Y250656D01*
X193040Y251014D01*
D02*
G37*
G36*
X15240D02*
Y243840D01*
X22414D01*
X22056Y245175D01*
X20734Y247465D01*
X18865Y249334D01*
X16575Y250656D01*
X15240Y251014D01*
D02*
G37*
G36*
X10160D02*
X8825Y250656D01*
X6535Y249334D01*
X4666Y247465D01*
X3344Y245175D01*
X2986Y243840D01*
X10160D01*
Y251014D01*
D02*
G37*
G36*
X187960D02*
X186625Y250656D01*
X184335Y249334D01*
X182466Y247465D01*
X181144Y245175D01*
X180786Y243840D01*
X187960D01*
Y251014D01*
D02*
G37*
G36*
Y238760D02*
X180786D01*
X181144Y237425D01*
X182466Y235135D01*
X184335Y233266D01*
X186625Y231944D01*
X187960Y231586D01*
Y238760D01*
D02*
G37*
G36*
X10160D02*
X2986D01*
X3344Y237425D01*
X4666Y235135D01*
X6535Y233266D01*
X8825Y231944D01*
X10160Y231586D01*
Y238760D01*
D02*
G37*
G36*
X22414D02*
X15240D01*
Y231586D01*
X16575Y231944D01*
X18865Y233266D01*
X20734Y235135D01*
X22056Y237425D01*
X22414Y238760D01*
D02*
G37*
G36*
X200214D02*
X193040D01*
Y231586D01*
X194375Y231944D01*
X196665Y233266D01*
X198534Y235135D01*
X199856Y237425D01*
X200214Y238760D01*
D02*
G37*
G36*
X191751Y225400D02*
X189249D01*
X186833Y224753D01*
X184667Y223502D01*
X182898Y221733D01*
X182203Y220529D01*
X101600D01*
X101600Y220529D01*
X99829Y220177D01*
X98327Y219173D01*
X98327Y219173D01*
X86983Y207829D01*
X70500D01*
Y212520D01*
X51420D01*
Y207829D01*
X50180D01*
Y212520D01*
X31100D01*
Y207829D01*
X27317D01*
X21840Y213306D01*
X22200Y214649D01*
Y217151D01*
X21553Y219567D01*
X20302Y221733D01*
X18533Y223502D01*
X16367Y224753D01*
X13951Y225400D01*
X11449D01*
X9033Y224753D01*
X6867Y223502D01*
X5098Y221733D01*
X3847Y219567D01*
X3200Y217151D01*
Y214649D01*
X3847Y212233D01*
X5098Y210067D01*
X6867Y208298D01*
X9033Y207047D01*
X11449Y206400D01*
X13951D01*
X15294Y206760D01*
X22127Y199927D01*
X22127Y199927D01*
X23629Y198923D01*
X25400Y198571D01*
X25400Y198571D01*
X88900D01*
X88900Y198571D01*
X90671Y198923D01*
X92173Y199927D01*
X103517Y211271D01*
X182203D01*
X182898Y210067D01*
X184667Y208298D01*
X186833Y207047D01*
X189249Y206400D01*
X191751D01*
X194167Y207047D01*
X196333Y208298D01*
X198102Y210067D01*
X199353Y212233D01*
X200000Y214649D01*
Y217151D01*
X199353Y219567D01*
X198102Y221733D01*
X196333Y223502D01*
X194167Y224753D01*
X191751Y225400D01*
D02*
G37*
G36*
X70500Y223600D02*
X63500D01*
Y217600D01*
X70500D01*
Y223600D01*
D02*
G37*
G36*
X58420D02*
X51420D01*
Y217600D01*
X58420D01*
Y223600D01*
D02*
G37*
G36*
X50180D02*
X43180D01*
Y217600D01*
X50180D01*
Y223600D01*
D02*
G37*
G36*
X38100D02*
X31100D01*
Y217600D01*
X38100D01*
Y223600D01*
D02*
G37*
G36*
X15240Y200214D02*
Y193040D01*
X22414D01*
X22056Y194375D01*
X20734Y196665D01*
X18865Y198534D01*
X16575Y199856D01*
X15240Y200214D01*
D02*
G37*
G36*
X10160D02*
X8825Y199856D01*
X6535Y198534D01*
X4666Y196665D01*
X3344Y194375D01*
X2986Y193040D01*
X10160D01*
Y200214D01*
D02*
G37*
G36*
X191751Y200000D02*
X189249D01*
X186833Y199353D01*
X184667Y198102D01*
X182898Y196333D01*
X181647Y194167D01*
X181000Y191751D01*
Y189249D01*
X181647Y186833D01*
X182898Y184667D01*
X184667Y182898D01*
X186833Y181647D01*
X189249Y181000D01*
X191751D01*
X194167Y181647D01*
X196333Y182898D01*
X198102Y184667D01*
X199353Y186833D01*
X200000Y189249D01*
Y191751D01*
X199353Y194167D01*
X198102Y196333D01*
X196333Y198102D01*
X194167Y199353D01*
X191751Y200000D01*
D02*
G37*
G36*
X10160Y187960D02*
X2986D01*
X3344Y186625D01*
X4666Y184335D01*
X6535Y182466D01*
X8825Y181144D01*
X10160Y180786D01*
Y187960D01*
D02*
G37*
G36*
X22414D02*
X15240D01*
Y180786D01*
X16575Y181144D01*
X18865Y182466D01*
X20734Y184335D01*
X22056Y186625D01*
X22414Y187960D01*
D02*
G37*
G36*
X144355Y176850D02*
X142665D01*
X141103Y176203D01*
X139907Y175007D01*
X139260Y173445D01*
Y171755D01*
X139907Y170193D01*
X141103Y168997D01*
X142665Y168350D01*
X144355D01*
X145917Y168997D01*
X147113Y170193D01*
X147760Y171755D01*
Y173445D01*
X147113Y175007D01*
X145917Y176203D01*
X144355Y176850D01*
D02*
G37*
G36*
X191751Y174600D02*
X189249D01*
X186833Y173953D01*
X184667Y172702D01*
X182898Y170933D01*
X181647Y168767D01*
X181000Y166351D01*
Y163849D01*
X181647Y161433D01*
X182898Y159267D01*
X184667Y157498D01*
X186833Y156247D01*
X189249Y155600D01*
X191751D01*
X194167Y156247D01*
X196333Y157498D01*
X198102Y159267D01*
X199353Y161433D01*
X200000Y163849D01*
Y166351D01*
X199353Y168767D01*
X198102Y170933D01*
X196333Y172702D01*
X194167Y173953D01*
X191751Y174600D01*
D02*
G37*
G36*
X13951D02*
X11449D01*
X9033Y173953D01*
X6867Y172702D01*
X5098Y170933D01*
X3847Y168767D01*
X3200Y166351D01*
Y163849D01*
X3847Y161433D01*
X5098Y159267D01*
X6867Y157498D01*
X9033Y156247D01*
X11449Y155600D01*
X13951D01*
X16367Y156247D01*
X18533Y157498D01*
X20302Y159267D01*
X21553Y161433D01*
X22200Y163849D01*
Y166351D01*
X21553Y168767D01*
X20302Y170933D01*
X18533Y172702D01*
X16367Y173953D01*
X13951Y174600D01*
D02*
G37*
G36*
X52915Y175700D02*
X51225D01*
X49663Y175053D01*
X48467Y173857D01*
X47820Y172295D01*
Y170605D01*
X48467Y169043D01*
X48736Y168774D01*
Y166320D01*
X41800D01*
Y150320D01*
X59800D01*
Y154986D01*
X62120D01*
Y150320D01*
X80120D01*
Y154986D01*
X82440D01*
Y150320D01*
X100440D01*
Y166320D01*
X82440D01*
Y161654D01*
X80120D01*
Y166320D01*
X62120D01*
Y161654D01*
X59800D01*
Y166320D01*
X55404D01*
Y168774D01*
X55673Y169043D01*
X56320Y170605D01*
Y172295D01*
X55673Y173857D01*
X54477Y175053D01*
X52915Y175700D01*
D02*
G37*
G36*
X80660Y144860D02*
X73660D01*
Y138860D01*
X80660D01*
Y144860D01*
D02*
G37*
G36*
X68580D02*
X61580D01*
Y138860D01*
X68580D01*
Y144860D01*
D02*
G37*
G36*
X60340D02*
X53340D01*
Y138860D01*
X60340D01*
Y144860D01*
D02*
G37*
G36*
X48260D02*
X41260D01*
Y138860D01*
X48260D01*
Y144860D01*
D02*
G37*
G36*
X191751Y149200D02*
X189249D01*
X186833Y148553D01*
X184667Y147302D01*
X182898Y145533D01*
X181647Y143367D01*
X181000Y140951D01*
Y138449D01*
X181647Y136033D01*
X182898Y133867D01*
X184667Y132098D01*
X186833Y130847D01*
X189249Y130200D01*
X191751D01*
X194167Y130847D01*
X196333Y132098D01*
X198102Y133867D01*
X199353Y136033D01*
X200000Y138449D01*
Y140951D01*
X199353Y143367D01*
X198102Y145533D01*
X196333Y147302D01*
X194167Y148553D01*
X191751Y149200D01*
D02*
G37*
G36*
X13951D02*
X11449D01*
X9033Y148553D01*
X6867Y147302D01*
X5098Y145533D01*
X3847Y143367D01*
X3200Y140951D01*
Y138449D01*
X3847Y136033D01*
X5098Y133867D01*
X6867Y132098D01*
X9033Y130847D01*
X11449Y130200D01*
X13951D01*
X16367Y130847D01*
X18533Y132098D01*
X20302Y133867D01*
X21553Y136033D01*
X22200Y138449D01*
Y140951D01*
X21553Y143367D01*
X20302Y145533D01*
X18533Y147302D01*
X16367Y148553D01*
X13951Y149200D01*
D02*
G37*
G36*
X80660Y133780D02*
X73660D01*
Y127780D01*
X80660D01*
Y133780D01*
D02*
G37*
G36*
X68580D02*
X61580D01*
Y127780D01*
X68580D01*
Y133780D01*
D02*
G37*
G36*
X60340D02*
X53340D01*
Y127780D01*
X60340D01*
Y133780D01*
D02*
G37*
G36*
X48260D02*
X41260D01*
Y127780D01*
X48260D01*
Y133780D01*
D02*
G37*
G36*
X100440Y144320D02*
X82440D01*
Y128320D01*
X88106D01*
Y127136D01*
X87837Y126867D01*
X87190Y125305D01*
Y123615D01*
X87837Y122053D01*
X89033Y120857D01*
X90595Y120210D01*
X92285D01*
X93847Y120857D01*
X95043Y122053D01*
X95690Y123615D01*
Y125305D01*
X95043Y126867D01*
X94774Y127136D01*
Y128320D01*
X100440D01*
Y144320D01*
D02*
G37*
G36*
X191751Y123800D02*
X189249D01*
X186833Y123153D01*
X184667Y121902D01*
X182898Y120133D01*
X181647Y117967D01*
X181000Y115551D01*
Y113049D01*
X181647Y110633D01*
X182898Y108467D01*
X184667Y106698D01*
X186833Y105447D01*
X189249Y104800D01*
X191751D01*
X194167Y105447D01*
X196333Y106698D01*
X198102Y108467D01*
X199353Y110633D01*
X200000Y113049D01*
Y115551D01*
X199353Y117967D01*
X198102Y120133D01*
X196333Y121902D01*
X194167Y123153D01*
X191751Y123800D01*
D02*
G37*
G36*
X13951D02*
X11449D01*
X9033Y123153D01*
X6867Y121902D01*
X5098Y120133D01*
X3847Y117967D01*
X3200Y115551D01*
Y113049D01*
X3847Y110633D01*
X5098Y108467D01*
X6867Y106698D01*
X9033Y105447D01*
X11449Y104800D01*
X13951D01*
X16367Y105447D01*
X18533Y106698D01*
X20302Y108467D01*
X21553Y110633D01*
X22200Y113049D01*
Y115551D01*
X21553Y117967D01*
X20302Y120133D01*
X18533Y121902D01*
X16367Y123153D01*
X13951Y123800D01*
D02*
G37*
G36*
X132925Y103310D02*
X131235D01*
X129673Y102663D01*
X128477Y101467D01*
X127830Y99905D01*
Y98215D01*
X128477Y96653D01*
X129673Y95457D01*
X131235Y94810D01*
X132925D01*
X134487Y95457D01*
X135683Y96653D01*
X136330Y98215D01*
Y99905D01*
X135683Y101467D01*
X134487Y102663D01*
X132925Y103310D01*
D02*
G37*
G36*
X112605D02*
X110915D01*
X109353Y102663D01*
X108157Y101467D01*
X107510Y99905D01*
Y98215D01*
X108157Y96653D01*
X109120Y95690D01*
X108375D01*
X106813Y95043D01*
X106544Y94774D01*
X96656D01*
X96387Y95043D01*
X94825Y95690D01*
X93135D01*
X91573Y95043D01*
X90377Y93847D01*
X89730Y92285D01*
Y90595D01*
X90377Y89033D01*
X91573Y87837D01*
X93135Y87190D01*
X94825D01*
X96387Y87837D01*
X96656Y88106D01*
X106544D01*
X106813Y87837D01*
X108375Y87190D01*
X110065D01*
X111627Y87837D01*
X112823Y89033D01*
X113470Y90595D01*
Y92285D01*
X112823Y93847D01*
X111860Y94810D01*
X112605D01*
X114167Y95457D01*
X115363Y96653D01*
X116010Y98215D01*
Y99905D01*
X115363Y101467D01*
X114167Y102663D01*
X112605Y103310D01*
D02*
G37*
G36*
X191751Y98400D02*
X189249D01*
X186833Y97753D01*
X184667Y96502D01*
X182898Y94733D01*
X181647Y92567D01*
X181000Y90151D01*
Y87649D01*
X181647Y85233D01*
X182898Y83067D01*
X184667Y81298D01*
X186833Y80047D01*
X189249Y79400D01*
X191751D01*
X194167Y80047D01*
X196333Y81298D01*
X198102Y83067D01*
X199353Y85233D01*
X200000Y87649D01*
Y90151D01*
X199353Y92567D01*
X198102Y94733D01*
X196333Y96502D01*
X194167Y97753D01*
X191751Y98400D01*
D02*
G37*
G36*
X13951D02*
X11449D01*
X9033Y97753D01*
X6867Y96502D01*
X5098Y94733D01*
X3847Y92567D01*
X3200Y90151D01*
Y87649D01*
X3847Y85233D01*
X5098Y83067D01*
X6867Y81298D01*
X9033Y80047D01*
X11449Y79400D01*
X13951D01*
X16367Y80047D01*
X18533Y81298D01*
X20302Y83067D01*
X21553Y85233D01*
X22200Y87649D01*
Y90151D01*
X21553Y92567D01*
X20302Y94733D01*
X18533Y96502D01*
X16367Y97753D01*
X13951Y98400D01*
D02*
G37*
G36*
X191751Y73000D02*
X189249D01*
X186833Y72353D01*
X184667Y71102D01*
X182898Y69333D01*
X181647Y67167D01*
X181000Y64751D01*
Y62249D01*
X181647Y59833D01*
X182898Y57667D01*
X184667Y55898D01*
X186833Y54647D01*
X189249Y54000D01*
X191751D01*
X194167Y54647D01*
X196333Y55898D01*
X198102Y57667D01*
X199353Y59833D01*
X200000Y62249D01*
Y64751D01*
X199353Y67167D01*
X198102Y69333D01*
X196333Y71102D01*
X194167Y72353D01*
X191751Y73000D01*
D02*
G37*
G36*
X13951D02*
X11449D01*
X9033Y72353D01*
X6867Y71102D01*
X5098Y69333D01*
X3847Y67167D01*
X3200Y64751D01*
Y62249D01*
X3847Y59833D01*
X5098Y57667D01*
X6867Y55898D01*
X9033Y54647D01*
X11449Y54000D01*
X13951D01*
X16367Y54647D01*
X18533Y55898D01*
X20302Y57667D01*
X21553Y59833D01*
X22200Y62249D01*
Y64751D01*
X21553Y67167D01*
X20302Y69333D01*
X18533Y71102D01*
X16367Y72353D01*
X13951Y73000D01*
D02*
G37*
G36*
X154733Y70947D02*
X48467D01*
Y50800D01*
X154733D01*
Y70947D01*
D02*
G37*
G36*
X193040Y47814D02*
Y40640D01*
X200214D01*
X199856Y41975D01*
X198534Y44265D01*
X196665Y46134D01*
X194375Y47456D01*
X193040Y47814D01*
D02*
G37*
G36*
X15240D02*
Y40640D01*
X22414D01*
X22056Y41975D01*
X20734Y44265D01*
X18865Y46134D01*
X16575Y47456D01*
X15240Y47814D01*
D02*
G37*
G36*
X187960D02*
X186625Y47456D01*
X184335Y46134D01*
X182466Y44265D01*
X181144Y41975D01*
X180786Y40640D01*
X187960D01*
Y47814D01*
D02*
G37*
G36*
X10160D02*
X8825Y47456D01*
X6535Y46134D01*
X4666Y44265D01*
X3344Y41975D01*
X2986Y40640D01*
X10160D01*
Y47814D01*
D02*
G37*
G36*
X104140Y45274D02*
Y38100D01*
X111314D01*
X110956Y39435D01*
X109634Y41725D01*
X107765Y43594D01*
X105475Y44916D01*
X104140Y45274D01*
D02*
G37*
G36*
X99060Y45274D02*
X97725Y44916D01*
X95435Y43594D01*
X93566Y41725D01*
X92244Y39435D01*
X91886Y38100D01*
X99060D01*
Y45274D01*
D02*
G37*
G36*
X187960Y35560D02*
X180786D01*
X181144Y34225D01*
X182466Y31935D01*
X184335Y30066D01*
X186625Y28744D01*
X187960Y28386D01*
Y35560D01*
D02*
G37*
G36*
X10160D02*
X2986D01*
X3344Y34225D01*
X4666Y31935D01*
X6535Y30066D01*
X8825Y28744D01*
X10160Y28386D01*
Y35560D01*
D02*
G37*
G36*
X22414D02*
X15240D01*
Y28386D01*
X16575Y28744D01*
X18865Y30066D01*
X20734Y31935D01*
X22056Y34225D01*
X22414Y35560D01*
D02*
G37*
G36*
X200214D02*
X193040D01*
Y28386D01*
X194375Y28744D01*
X196665Y30066D01*
X198534Y31935D01*
X199856Y34225D01*
X200214Y35560D01*
D02*
G37*
G36*
X161900Y45060D02*
X142900D01*
Y26060D01*
X161900D01*
Y45060D01*
D02*
G37*
G36*
X128251D02*
X125749D01*
X123333Y44413D01*
X121167Y43162D01*
X119398Y41393D01*
X118147Y39227D01*
X117500Y36811D01*
Y34309D01*
X118147Y31893D01*
X119398Y29727D01*
X121167Y27958D01*
X123333Y26707D01*
X125749Y26060D01*
X128251D01*
X130667Y26707D01*
X132833Y27958D01*
X134602Y29727D01*
X135853Y31893D01*
X136500Y34309D01*
Y36811D01*
X135853Y39227D01*
X134602Y41393D01*
X132833Y43162D01*
X130667Y44413D01*
X128251Y45060D01*
D02*
G37*
G36*
X77451D02*
X74949D01*
X72533Y44413D01*
X70367Y43162D01*
X68598Y41393D01*
X67347Y39227D01*
X66700Y36811D01*
Y34309D01*
X67347Y31893D01*
X68598Y29727D01*
X70367Y27958D01*
X72533Y26707D01*
X74949Y26060D01*
X77451D01*
X79867Y26707D01*
X82033Y27958D01*
X83802Y29727D01*
X85053Y31893D01*
X85700Y34309D01*
Y36811D01*
X85053Y39227D01*
X83802Y41393D01*
X82033Y43162D01*
X79867Y44413D01*
X77451Y45060D01*
D02*
G37*
G36*
X52051D02*
X49549D01*
X47133Y44413D01*
X44967Y43162D01*
X43198Y41393D01*
X41947Y39227D01*
X41300Y36811D01*
Y34309D01*
X41947Y31893D01*
X43198Y29727D01*
X44967Y27958D01*
X47133Y26707D01*
X49549Y26060D01*
X52051D01*
X54467Y26707D01*
X56633Y27958D01*
X58402Y29727D01*
X59653Y31893D01*
X60300Y34309D01*
Y36811D01*
X59653Y39227D01*
X58402Y41393D01*
X56633Y43162D01*
X54467Y44413D01*
X52051Y45060D01*
D02*
G37*
G36*
X99060Y33020D02*
X91886D01*
X92244Y31685D01*
X93566Y29395D01*
X95435Y27526D01*
X97725Y26204D01*
X99060Y25846D01*
Y33020D01*
D02*
G37*
G36*
X111314D02*
X104140D01*
Y25846D01*
X105475Y26204D01*
X107765Y27526D01*
X109634Y29395D01*
X110956Y31685D01*
X111314Y33020D01*
D02*
G37*
%LPD*%
G36*
X71571Y256540D02*
Y253217D01*
X66380Y248026D01*
Y262410D01*
X58380D01*
Y245060D01*
X54009D01*
Y253660D01*
Y259870D01*
X53657Y261641D01*
X53380Y262055D01*
Y262410D01*
X53143D01*
X52653Y263143D01*
X52653Y263143D01*
X49886Y265910D01*
X51090D01*
Y265370D01*
X53340D01*
Y265910D01*
X53630D01*
Y274389D01*
X53657Y274428D01*
X53703Y274660D01*
X58057D01*
X58103Y274428D01*
X58130Y274389D01*
Y265910D01*
X58420D01*
Y265370D01*
X60670D01*
Y265910D01*
X66630D01*
Y274389D01*
X66657Y274429D01*
X67009Y276200D01*
Y287680D01*
X71571D01*
Y256540D01*
D02*
G37*
D25*
X91440Y136320D02*
D03*
Y158320D02*
D03*
X167640Y301420D02*
D03*
Y323420D02*
D03*
X147320D02*
D03*
Y301420D02*
D03*
X104140Y277700D02*
D03*
Y255700D02*
D03*
X124460D02*
D03*
Y277700D02*
D03*
X60960Y237060D02*
D03*
Y215060D02*
D03*
X40640D02*
D03*
Y237060D02*
D03*
X55880Y323420D02*
D03*
Y301420D02*
D03*
X35560D02*
D03*
Y323420D02*
D03*
X50800Y136320D02*
D03*
Y158320D02*
D03*
X71120D02*
D03*
Y136320D02*
D03*
D30*
X123620Y256540D02*
X154890D01*
X76200D02*
Y297180D01*
Y256540D02*
X104140D01*
X76200Y251300D02*
Y256540D01*
X101600Y335620D02*
X103060Y337080D01*
X101600Y334120D02*
Y335620D01*
X103060Y337080D02*
X108480D01*
X109220Y337820D01*
X104140Y256540D02*
X123620D01*
X25400Y203200D02*
X88900D01*
X101600Y215900D02*
X190500D01*
X88900Y203200D02*
X101600Y215900D01*
X157480Y274320D02*
X164390D01*
X165100Y275030D02*
Y276860D01*
X164390Y274320D02*
X165100Y275030D01*
X128898Y299078D02*
X144978D01*
X147320Y301420D01*
X127000Y297180D02*
X128898Y299078D01*
X147320Y301420D02*
X165810D01*
Y299590D02*
X167640Y301420D01*
X165100Y276860D02*
X165810Y277570D01*
Y299590D01*
X61960Y237060D02*
X76200Y251300D01*
X60960Y237060D02*
X61960D01*
X181660Y257860D02*
X190500Y266700D01*
X155600Y257860D02*
X181660D01*
X155600Y257250D02*
Y257860D01*
X154890Y256540D02*
X155600Y257250D01*
X49380Y253660D02*
Y259870D01*
X55880Y273660D02*
Y284480D01*
X56880Y301420D02*
X62380Y295920D01*
Y276200D02*
Y295920D01*
X55880Y301420D02*
X56880D01*
X45720Y302260D02*
X48260D01*
X36400D02*
X45720D01*
X48260D02*
X49380Y301140D01*
Y276200D02*
Y301140D01*
X48260Y238760D02*
X59260D01*
X48260D02*
X49380Y239880D01*
X42550Y266700D02*
X49380Y259870D01*
X12700Y266700D02*
X42550D01*
X49380Y239880D02*
Y253660D01*
X35560Y301420D02*
X36400Y302260D01*
X123620Y256540D02*
X124460Y255700D01*
X92180Y313160D02*
X93640D01*
X76200Y297180D02*
X92180Y313160D01*
X93640D02*
X95100Y314620D01*
Y316120D01*
X109220Y313500D02*
X125540Y297180D01*
X109220Y313500D02*
Y314960D01*
X125540Y297180D02*
X127000D01*
X96220Y313460D02*
Y314960D01*
X59260Y238760D02*
X60960Y237060D01*
X12700Y215900D02*
X25400Y203200D01*
D31*
X93980Y91440D02*
X109220D01*
X91440Y124460D02*
Y136320D01*
X50800Y158320D02*
X52070Y159590D01*
X50800Y158320D02*
X71120D01*
X52070Y159590D02*
Y171450D01*
X71120Y158320D02*
X91440D01*
D33*
X127000Y35560D02*
D03*
X101600D02*
D03*
X76200D02*
D03*
X50800D02*
D03*
X127000Y297180D02*
D03*
X101600D02*
D03*
X190500Y190500D02*
D03*
Y215900D02*
D03*
Y241300D02*
D03*
Y266700D02*
D03*
Y139700D02*
D03*
Y165100D02*
D03*
Y292100D02*
D03*
Y114300D02*
D03*
Y88900D02*
D03*
Y63500D02*
D03*
Y38100D02*
D03*
X12700Y190500D02*
D03*
Y215900D02*
D03*
Y241300D02*
D03*
Y266700D02*
D03*
Y139700D02*
D03*
Y165100D02*
D03*
Y292100D02*
D03*
Y114300D02*
D03*
Y88900D02*
D03*
Y63500D02*
D03*
Y38100D02*
D03*
D34*
X152400Y35560D02*
D03*
X76200Y297180D02*
D03*
D35*
X77350Y326560D02*
D03*
X125850D02*
D03*
D36*
X137600Y353060D02*
D03*
X65600D02*
D03*
D37*
X190500Y317500D02*
D03*
X12700D02*
D03*
D38*
X83820Y248920D02*
D03*
X109220Y337820D02*
D03*
X142240Y256540D02*
D03*
X154940Y231140D02*
D03*
X157480Y274320D02*
D03*
X136449Y279060D02*
D03*
X55880Y264160D02*
D03*
X170180Y266700D02*
D03*
X143510Y172600D02*
D03*
X40640Y256540D02*
D03*
X45720Y302260D02*
D03*
X35560Y332740D02*
D03*
X55880D02*
D03*
X157480Y350520D02*
D03*
X172720Y152400D02*
D03*
X149860Y163830D02*
D03*
X172720Y335280D02*
D03*
X101600Y226060D02*
D03*
X144780Y340360D02*
D03*
X33020Y160020D02*
D03*
X60960Y127000D02*
D03*
X73660Y213360D02*
D03*
X40640Y226060D02*
D03*
X91440Y276860D02*
D03*
X55880Y284480D02*
D03*
X109220Y203200D02*
D03*
X127000Y226060D02*
D03*
X152400Y200660D02*
D03*
X165100Y177800D02*
D03*
X91440Y182880D02*
D03*
X160020Y68580D02*
D03*
X152400Y124460D02*
D03*
X91440Y99060D02*
D03*
X43180Y68580D02*
D03*
X88900Y81280D02*
D03*
X134620D02*
D03*
X93980Y91440D02*
D03*
X109220D02*
D03*
X132080Y99060D02*
D03*
X111760D02*
D03*
X91440Y124460D02*
D03*
X137160Y127000D02*
D03*
X109220Y129540D02*
D03*
X114300Y177800D02*
D03*
X52070Y171450D02*
D03*
D47*
X146100Y276860D02*
D03*
X165100D02*
D03*
X155600Y257860D02*
D03*
D48*
X62380Y274660D02*
D03*
X49380D02*
D03*
X55880D02*
D03*
D49*
X62380Y253660D02*
D03*
X49380D02*
D03*
D50*
X101600Y334120D02*
D03*
X108100Y316120D02*
D03*
X95100D02*
D03*
D51*
X150924Y67137D02*
Y57742D01*
Y62439D01*
X144660D01*
Y67137D01*
Y57742D01*
X139963Y64005D02*
X136831D01*
X135265Y62439D01*
Y57742D01*
X139963D01*
X141529Y59307D01*
X139963Y60873D01*
X135265D01*
X132134Y54610D02*
Y64005D01*
X127436D01*
X125870Y62439D01*
Y59307D01*
X127436Y57742D01*
X132134D01*
X122739Y54610D02*
Y64005D01*
X118041D01*
X116475Y62439D01*
Y59307D01*
X118041Y57742D01*
X122739D01*
X113344Y64005D02*
Y59307D01*
X111778Y57742D01*
X107080D01*
Y56176D01*
X108646Y54610D01*
X110212D01*
X107080Y57742D02*
Y64005D01*
X103949Y67137D02*
Y57742D01*
X99251D01*
X97685Y59307D01*
Y65571D01*
X99251Y67137D01*
X103949D01*
X92988Y57742D02*
X89856D01*
X88291Y59307D01*
Y62439D01*
X89856Y64005D01*
X92988D01*
X94554Y62439D01*
Y59307D01*
X92988Y57742D01*
X85159D02*
Y64005D01*
X80461D01*
X78896Y62439D01*
Y57742D01*
X75764Y64005D02*
Y59307D01*
X74198Y57742D01*
X69501D01*
Y64005D01*
X64803Y65571D02*
Y64005D01*
X66369D01*
X63237D01*
X64803D01*
Y59307D01*
X63237Y57742D01*
X58540D02*
X53842D01*
X52277Y59307D01*
X53842Y60873D01*
X56974D01*
X58540Y62439D01*
X56974Y64005D01*
X52277D01*
M02*
