M48
;Layer_Color=9474304
;FILE_FORMAT=4:4
METRIC,LZ
;TYPE=PLATED
T1F00S00C0.2000
T3F00S00C0.6500
T4F00S00C0.9000
%
T01
X0004318Y0006858
X000889Y0008128
X0009398Y0009144
X0010922
X0013462Y0008128
X0016002Y0006858
X0013208Y0009906
X0011176
X0009144
Y0012446
X0010922Y0012954
X0013716Y00127
X001524Y0012446
X0014986Y0016383
X0014351Y001726
X001651Y001778
X0017272Y001524
X001524Y0020066
X0015494Y0023114
X00127Y0022606
X001016
X0010922Y002032
X001143Y001778
X0009144Y0018288
X0007366Y0021336
X0008382Y0024892
X0009144Y0027686
X0005588Y0028448
Y0026416
X0004064Y0025654
Y0022606
X0005207Y0017145
X0003302Y0016002
X0006096Y00127
X0004572Y0030226
X0003556Y0033274
X0005588
X0010922Y0033782
X0014478Y0034036
X0015748Y0035052
X0017272Y0033528
X0017018Y002667
X0015748Y0027432
X00136449Y0027906
X0014224Y0025654
T03
X0007735Y0032656
X0012585
T04
X000127Y000381
Y000635
Y000889
X000508Y0003556
X000762
X001016
X00127
X001524
X001905Y000381
Y000635
Y000889
Y001143
Y001397
Y001651
Y001905
Y002159
Y002413
Y002667
Y002921
Y003175
X00127Y0029718
X001016
X000762
X000127Y002921
Y003175
Y002667
Y002413
Y002159
Y001905
Y001651
Y001397
Y001143
M30
