G04*
G04 #@! TF.GenerationSoftware,Altium Limited,Altium Designer,22.5.1 (42)*
G04*
G04 Layer_Color=32768*
%FSLAX44Y44*%
%MOMM*%
G71*
G04*
G04 #@! TF.SameCoordinates,DFEE975E-FB4D-4F5B-BE5F-A39223BB333C*
G04*
G04*
G04 #@! TF.FilePolarity,Positive*
G04*
G01*
G75*
%ADD57C,0.1000*%
%ADD58C,0.0500*%
D57*
X47450Y384560D02*
X155750D01*
Y309560D02*
Y384560D01*
X47450Y309560D02*
Y384560D01*
Y309560D02*
X155750D01*
D58*
X167640Y19050D02*
Y52070D01*
X34290Y19050D02*
Y52070D01*
X167640D01*
X34290Y19050D02*
X167640D01*
X105000Y227900D02*
X146000D01*
X105000Y203900D02*
Y227900D01*
Y203900D02*
X146000D01*
Y227900D01*
X43880Y100280D02*
X67880D01*
Y59280D02*
Y100280D01*
X43880Y59280D02*
X67880D01*
X43880D02*
Y100280D01*
X54200Y203900D02*
X98200D01*
X54200D02*
Y227900D01*
X98200D01*
Y203900D02*
Y227900D01*
X148480Y347930D02*
X166480D01*
X148480Y309930D02*
Y347930D01*
X166480Y309930D02*
Y347930D01*
X148480Y309930D02*
X166480D01*
X70600Y61010D02*
Y99010D01*
X132600D01*
Y61010D02*
Y99010D01*
X70600Y61010D02*
X132600D01*
X123080Y267920D02*
X141080D01*
X123080Y229920D02*
Y267920D01*
X141080Y229920D02*
Y267920D01*
X123080Y229920D02*
X141080D01*
X41960Y102760D02*
Y120760D01*
Y102760D02*
X79960D01*
X41960Y120760D02*
X79960D01*
Y102760D02*
Y120760D01*
X102760Y229920D02*
X120760D01*
Y267920D01*
X102760Y229920D02*
Y267920D01*
X120760D01*
X137850Y248860D02*
Y285860D01*
Y248860D02*
X173350D01*
Y285860D01*
X137850D02*
X173350D01*
X42880Y244160D02*
Y284160D01*
Y244160D02*
X68880D01*
Y284160D01*
X42880D02*
X68880D01*
X60600Y132640D02*
Y204640D01*
Y132640D02*
X142600D01*
Y204640D01*
X60600D02*
X142600D01*
X82440Y128320D02*
X100440D01*
X82440D02*
Y166320D01*
X100440Y128320D02*
Y166320D01*
X82440D02*
X100440D01*
X115600Y307120D02*
Y343120D01*
X87600D02*
X115600D01*
X87600Y307120D02*
X115600D01*
X87600D02*
Y343120D01*
X61200Y281180D02*
Y313180D01*
X142000Y281180D02*
Y313180D01*
X61200Y281180D02*
X142000D01*
X61200Y313180D02*
X142000D01*
X206500Y23100D02*
Y332500D01*
X174500Y23100D02*
Y332500D01*
Y23100D02*
X206500D01*
X174500Y332500D02*
X206500D01*
X28700Y23100D02*
Y332500D01*
X-3300Y23100D02*
Y332500D01*
Y23100D02*
X28700D01*
X-3300Y332500D02*
X28700D01*
X176640Y293420D02*
Y331420D01*
X158640Y293420D02*
Y331420D01*
X176640D01*
X158640Y293420D02*
X176640D01*
X138320D02*
X156320D01*
X138320Y331420D02*
X156320D01*
X138320Y293420D02*
Y331420D01*
X156320Y293420D02*
Y331420D01*
X95140Y247700D02*
X113140D01*
X95140Y285700D02*
X113140D01*
X95140Y247700D02*
Y285700D01*
X113140Y247700D02*
Y285700D01*
X133460Y247700D02*
Y285700D01*
X115460Y247700D02*
Y285700D01*
X133460D01*
X115460Y247700D02*
X133460D01*
X51960Y207060D02*
Y245060D01*
X69960Y207060D02*
Y245060D01*
X51960Y207060D02*
X69960D01*
X51960Y245060D02*
X69960D01*
X31640D02*
X49640D01*
X31640Y207060D02*
X49640D01*
Y245060D01*
X31640Y207060D02*
Y245060D01*
X46880Y293420D02*
X64880D01*
X46880Y331420D02*
X64880D01*
X46880Y293420D02*
Y331420D01*
X64880Y293420D02*
Y331420D01*
X44560Y293420D02*
Y331420D01*
X26560Y293420D02*
Y331420D01*
X44560D01*
X26560Y293420D02*
X44560D01*
X62120Y229920D02*
Y267920D01*
X80120Y229920D02*
Y267920D01*
X62120D02*
X80120D01*
X62120Y229920D02*
X80120D01*
X82440D02*
Y267920D01*
X100440Y229920D02*
Y267920D01*
X82440D02*
X100440D01*
X82440Y229920D02*
X100440D01*
X138320Y62280D02*
Y100280D01*
X156320Y62280D02*
Y100280D01*
X138320D02*
X156320D01*
X138320Y62280D02*
X156320D01*
X41800Y166320D02*
X59800D01*
X41800Y128320D02*
X59800D01*
Y166320D01*
X41800Y128320D02*
Y166320D01*
X62120Y128320D02*
Y166320D01*
X80120Y128320D02*
Y166320D01*
X62120Y128320D02*
X80120D01*
X62120Y166320D02*
X80120D01*
X123240Y120760D02*
X161240D01*
X123240Y102760D02*
X161240D01*
Y120760D01*
X123240Y102760D02*
Y120760D01*
X82600Y102760D02*
Y120760D01*
X120600Y102760D02*
Y120760D01*
X82600Y102760D02*
X120600D01*
X82600Y120760D02*
X120600D01*
M02*
