G04*
G04 #@! TF.GenerationSoftware,Altium Limited,Altium Designer,22.5.1 (42)*
G04*
G04 Layer_Color=8388736*
%FSLAX44Y44*%
%MOMM*%
G71*
G04*
G04 #@! TF.SameCoordinates,DFEE975E-FB4D-4F5B-BE5F-A39223BB333C*
G04*
G04*
G04 #@! TF.FilePolarity,Negative*
G04*
G01*
G75*
%ADD13R,1.4032X1.6032*%
%ADD14R,1.6032X1.4032*%
%ADD15R,1.4032X2.0032*%
%ADD16R,1.4532X0.8532*%
%ADD17R,1.8782X0.6532*%
%ADD18R,0.6500X2.0500*%
%ADD19C,1.7032*%
%ADD20R,1.7032X1.7032*%
%ADD21C,1.3032*%
%ADD22O,1.3032X2.0532*%
%ADD23R,1.7032X1.7032*%
D13*
X138000Y215900D02*
D03*
X116000D02*
D03*
X49960Y111760D02*
D03*
X71960D02*
D03*
X131240D02*
D03*
X153240D02*
D03*
X112600D02*
D03*
X90600D02*
D03*
D14*
X55880Y70280D02*
D03*
Y92280D02*
D03*
X157480Y339930D02*
D03*
Y317930D02*
D03*
X132080Y259920D02*
D03*
Y237920D02*
D03*
X111760D02*
D03*
Y259920D02*
D03*
X71120Y237920D02*
D03*
Y259920D02*
D03*
X91440Y237920D02*
D03*
Y259920D02*
D03*
X147320Y70280D02*
D03*
Y92280D02*
D03*
D15*
X89200Y215900D02*
D03*
X63200D02*
D03*
D16*
X123350Y69260D02*
D03*
X79850D02*
D03*
X123350Y90760D02*
D03*
X79850D02*
D03*
D17*
X131980Y196890D02*
D03*
Y190390D02*
D03*
Y183890D02*
D03*
Y177390D02*
D03*
Y170890D02*
D03*
Y164390D02*
D03*
Y157890D02*
D03*
Y151390D02*
D03*
Y144890D02*
D03*
Y138390D02*
D03*
X71220D02*
D03*
Y144890D02*
D03*
Y151390D02*
D03*
Y157890D02*
D03*
Y164390D02*
D03*
Y170890D02*
D03*
Y177390D02*
D03*
Y183890D02*
D03*
Y190390D02*
D03*
Y196890D02*
D03*
D18*
X114600Y324560D02*
D03*
X95100D02*
D03*
X101600D02*
D03*
X108100D02*
D03*
X88600D02*
D03*
D19*
X127000Y35560D02*
D03*
X101600D02*
D03*
X76200D02*
D03*
X50800D02*
D03*
X127000Y297180D02*
D03*
X101600D02*
D03*
X190500Y190500D02*
D03*
Y215900D02*
D03*
Y241300D02*
D03*
Y266700D02*
D03*
Y139700D02*
D03*
Y165100D02*
D03*
Y292100D02*
D03*
Y114300D02*
D03*
Y88900D02*
D03*
Y63500D02*
D03*
Y38100D02*
D03*
X12700Y190500D02*
D03*
Y215900D02*
D03*
Y241300D02*
D03*
Y266700D02*
D03*
Y139700D02*
D03*
Y165100D02*
D03*
Y292100D02*
D03*
Y114300D02*
D03*
Y88900D02*
D03*
Y63500D02*
D03*
Y38100D02*
D03*
D20*
X152400Y35560D02*
D03*
X76200Y297180D02*
D03*
D21*
X77350Y326560D02*
D03*
X125850D02*
D03*
D22*
X137600Y353060D02*
D03*
X65600D02*
D03*
D23*
X190500Y317500D02*
D03*
X12700D02*
D03*
M02*
