G04*
G04 #@! TF.GenerationSoftware,Altium Limited,Altium Designer,22.5.1 (42)*
G04*
G04 Layer_Physical_Order=3*
G04 Layer_Color=128*
%FSLAX44Y44*%
%MOMM*%
G71*
G04*
G04 #@! TF.SameCoordinates,DFEE975E-FB4D-4F5B-BE5F-A39223BB333C*
G04*
G04*
G04 #@! TF.FilePolarity,Negative*
G04*
G01*
G75*
%ADD31C,0.2540*%
%ADD39C,1.0160*%
%ADD40C,1.9160*%
G04:AMPARAMS|DCode=41|XSize=2.424mm|YSize=2.424mm|CornerRadius=0mm|HoleSize=0mm|Usage=FLASHONLY|Rotation=0.000|XOffset=0mm|YOffset=0mm|HoleType=Round|Shape=Relief|Width=0.254mm|Gap=0.254mm|Entries=4|*
%AMTHD41*
7,0,0,2.4240,1.9160,0.2540,45*
%
%ADD41THD41*%
%ADD44C,1.2160*%
%ADD45C,1.6660*%
%ADD46O,1.5660X2.3160*%
D31*
X63500Y294640D02*
Y312420D01*
X193040Y294640D02*
X203200Y304800D01*
X0Y294640D02*
X63500D01*
X139700D02*
Y312420D01*
Y294640D02*
X193040D01*
X63500Y312420D02*
X139700D01*
D39*
X0Y25400D02*
G03*
X25400Y0I25400J0D01*
G01*
X177800D02*
G03*
X203200Y25400I0J25400D01*
G01*
Y345440D02*
G03*
X177800Y370840I-25400J0D01*
G01*
X25400D02*
G03*
X0Y345440I0J-25400D01*
G01*
X25400Y0D02*
X177800D01*
X203200Y25400D02*
Y345440D01*
X25400Y370840D02*
X177800D01*
X0Y25400D02*
Y345440D01*
D40*
X127000Y35560D02*
D03*
X101600D02*
D03*
X76200D02*
D03*
X50800D02*
D03*
X127000Y297180D02*
D03*
X76200D02*
D03*
X190500Y190500D02*
D03*
Y215900D02*
D03*
Y241300D02*
D03*
Y266700D02*
D03*
Y139700D02*
D03*
Y165100D02*
D03*
Y292100D02*
D03*
Y114300D02*
D03*
Y88900D02*
D03*
Y63500D02*
D03*
Y38100D02*
D03*
X12700Y190500D02*
D03*
Y215900D02*
D03*
Y241300D02*
D03*
Y266700D02*
D03*
Y139700D02*
D03*
Y165100D02*
D03*
Y292100D02*
D03*
Y114300D02*
D03*
Y88900D02*
D03*
Y63500D02*
D03*
Y38100D02*
D03*
D41*
X152400Y35560D02*
D03*
X101600Y297180D02*
D03*
X190500Y317500D02*
D03*
X12700D02*
D03*
D44*
X83820Y248920D02*
D03*
X142240Y256540D02*
D03*
X154940Y231140D02*
D03*
X157480Y274320D02*
D03*
X136449Y279060D02*
D03*
X55880Y264160D02*
D03*
X170180Y266700D02*
D03*
X40640Y256540D02*
D03*
X35560Y332740D02*
D03*
X55880D02*
D03*
X172720Y152400D02*
D03*
X149860Y163830D02*
D03*
X172720Y335280D02*
D03*
X101600Y226060D02*
D03*
X144780Y340360D02*
D03*
X33020Y160020D02*
D03*
X60960Y127000D02*
D03*
X73660Y213360D02*
D03*
X40640Y226060D02*
D03*
X91440Y276860D02*
D03*
X55880Y284480D02*
D03*
X109220Y203200D02*
D03*
X127000Y226060D02*
D03*
X152400Y200660D02*
D03*
X165100Y177800D02*
D03*
X91440Y182880D02*
D03*
X160020Y68580D02*
D03*
X152400Y124460D02*
D03*
X91440Y99060D02*
D03*
X43180Y68580D02*
D03*
X88900Y81280D02*
D03*
X134620D02*
D03*
X93980Y91440D02*
D03*
X109220D02*
D03*
X137160Y127000D02*
D03*
X109220Y129540D02*
D03*
X114300Y177800D02*
D03*
X52070Y171450D02*
D03*
D45*
X77350Y326560D02*
D03*
X125850D02*
D03*
D46*
X137600Y353060D02*
D03*
X65600D02*
D03*
M02*
